#N canvas 0 22 1280 696 10;
#X obj 451 214 sig~ 1;
#X obj 451 468 /~;
#X obj 467 417 *~;
#X obj 467 438 +~ 1;
#X obj 532 394 unpack f f f;
#X msg 533 210 400 1900 2550;
#X msg 533 188 280 2250 2900;
#X msg 533 231 550 1770 2490;
#X obj 579 574 bp~ 1 34;
#X obj 514 575 bp~ 1 34;
#X obj 451 575 bp~ 1 34;
#X msg 533 253 690 1660 2490;
#X msg 533 275 640 1190 2390;
#X msg 533 297 310 870 2250;
#X msg 533 319 450 1030 2380;
#X msg 533 341 500 1500 2500;
#X msg 533 363 710 1100 2640;
#X msg 533 118 i;
#X msg 564 118 I;
#X msg 595 118 E;
#X msg 626 118 ae;
#X msg 657 118 ^;
#X msg 688 118 u;
#X msg 718 118 U;
#X msg 747 118 &;
#X msg 777 118 A;
#X obj 533 159 route i I E ae ^ u U & A;
#X obj 451 687 clip~ -1 1;
#X obj 467 396 *~ 24;
#X obj 451 489 -~ 0;
#X obj 421 -63 bng 15 250 50 0 empty empty empty 17 7 0 10 -262144
-1 -1;
#X obj 352 47 <= 30;
#X obj 533 38 / 10;
#X obj 533 67 int;
#X obj 532 442 line;
#X obj 566 462 line;
#X obj 601 485 line;
#X obj -26 136 mtof;
#X obj -16 32 hradio 15 1 0 8 empty empty empty 0 -8 0 10 -262144 -1
-1 0;
#X obj 533 87 select 3 4 5 6 7 8 9;
#X obj 190 778 *~;
#X obj -84 -93 bng 15 250 50 0 empty empty empty 17 7 0 10 -262144
-1 -1;
#X obj 190 918 outlet~;
#X obj 352 17 line;
#X floatatom 313 137 5 0 0 0 - - -;
#X obj 282 -57 loadbang;
#X obj 352 -32 random 100;
#X obj -84 -122 inlet;
#X obj 190 200 * 1;
#X msg 352 -5 \$1 600;
#X msg 1 89 48;
#X obj 451 712 env~;
#X msg 601 462 \$1 10000;
#X msg 566 439 \$1 10000;
#X msg 532 419 \$1 10000;
#X msg 27 90 60;
#X msg 110 90 55;
#X msg 421 -5 \$1 6000;
#N canvas 155 102 662 468 envelope 0;
#X msg 223 215 0 \$1;
#X obj 152 87 int;
#X obj 152 151 delay;
#X obj 223 190 int;
#X obj 152 108 t b f;
#X obj 152 -7 inlet;
#X obj 238 71 line;
#X floatatom 369 91 5 0 0 0 - - -;
#X obj 179 129 / 80;
#X floatatom 314 120 5 0 0 0 - - -;
#X msg 238 50 \$1 10000;
#X obj 238 151 * 4;
#X obj 179 275 line;
#X obj 179 338 outlet;
#X obj 238 27 random 1000;
#X msg 179 215 5 \$1;
#X connect 0 0 12 0;
#X connect 1 0 4 0;
#X connect 2 0 3 0;
#X connect 3 0 0 0;
#X connect 4 0 2 0;
#X connect 4 1 8 0;
#X connect 5 0 1 0;
#X connect 5 0 14 0;
#X connect 6 0 1 1;
#X connect 6 0 9 0;
#X connect 6 0 11 0;
#X connect 8 0 15 0;
#X connect 8 0 2 1;
#X connect 10 0 6 0;
#X connect 11 0 3 1;
#X connect 12 0 13 0;
#X connect 14 0 10 0;
#X connect 14 0 7 0;
#X connect 15 0 12 0;
#X restore -84 445 pd envelope;
#X obj -26 6 random 9;
#X obj -26 56 select 0 1 2 3 4 5 6 7;
#X floatatom 489 91 5 0 0 0 - - -;
#X obj 421 -32 random 100;
#X obj 252 77 bang;
#X obj 289 900 env~;
#X obj 292 920 hsl 128 15 0 127 0 0 empty empty empty -2 -8 0 10 -262144
-1 -1 0 1;
#X obj 451 734 / 200;
#X obj -26 159 * 10;
#N canvas 0 22 1280 696 harmonisch 1;
#X obj 457 305 tgl 15 0 empty empty empty 17 7 0 10 -262144 -1 -1 1
1;
#X obj 442 27 inlet;
#X obj 442 645 outlet~;
#X obj 457 88 loadbang;
#X msg 457 111 1;
#N canvas 572 209 450 300 line2 0;
#X obj 162 108 random 100;
#X obj 194 164 line;
#X obj 197 64 metro 2000;
#X obj 191 204 outlet;
#X obj 197 36 inlet;
#X floatatom 282 195 5 0 0 0 - - -;
#X obj 258 124 i;
#X floatatom 326 98 5 0 2000 0 - - -;
#X obj 276 37 loadbang;
#X obj 357 45 inlet;
#X msg 282 75 10000;
#X floatatom 89 157 5 0 0 0 - - -;
#X obj 107 112 bng 15 250 50 0 empty empty empty 17 7 0 10 -262144
-1 -1;
#X obj 127 107 bng 15 250 50 0 empty empty empty 17 7 0 10 -262144
-1 -1;
#X connect 0 0 1 0;
#X connect 0 0 11 0;
#X connect 1 0 3 0;
#X connect 1 0 5 0;
#X connect 2 0 0 0;
#X connect 2 0 6 0;
#X connect 2 0 13 0;
#X connect 4 0 2 0;
#X connect 6 0 1 1;
#X connect 7 0 6 1;
#X connect 8 0 10 0;
#X connect 9 0 7 0;
#X connect 10 0 6 1;
#X restore 457 328 pd line2;
#N canvas 0 22 1280 696 10harmonischenenz------- 0;
#X obj -9 274 vsl 15 128 0 100 0 0 empty empty empty 0 -9 0 10 -262144
-1 -1 5264 1;
#X obj -9 238 inlet;
#X obj -24 110 * 1;
#X obj -109 18 inlet;
#X obj 42 275 vsl 15 128 0 100 0 0 empty empty empty 0 -9 0 10 -262144
-1 -1 5768 1;
#X obj 42 239 inlet;
#X obj 93 275 vsl 15 128 0 100 0 0 empty empty empty 0 -9 0 10 -262144
-1 -1 5223 1;
#X obj 93 239 inlet;
#X obj 144 274 vsl 15 128 0 100 0 0 empty empty empty 0 -9 0 10 -262144
-1 -1 7553 1;
#X obj 144 238 inlet;
#X obj 195 275 vsl 15 128 0 100 0 0 empty empty empty 0 -9 0 10 -262144
-1 -1 6610 1;
#X obj 195 239 inlet;
#X obj 246 275 vsl 15 128 0 100 0 0 empty empty empty 0 -9 0 10 -262144
-1 -1 6038 1;
#X obj 246 239 inlet;
#X obj 297 274 vsl 15 128 0 100 0 0 empty empty empty 0 -9 0 10 -262144
-1 -1 4985 1;
#X obj 297 238 inlet;
#X obj 348 275 vsl 15 128 0 100 0 0 empty empty empty 0 -9 0 10 -262144
-1 -1 4479 1;
#X obj 348 239 inlet;
#X obj 399 275 vsl 15 128 0 100 0 0 empty empty empty 0 -9 0 10 -262144
-1 -1 5429 1;
#X obj 399 239 inlet;
#X obj 450 274 vsl 15 128 0 100 0 0 empty empty empty 0 -9 0 10 -262144
-1 -1 6771 1;
#X obj 450 238 inlet;
#X obj 27 109 * 2;
#X obj 78 111 * 3;
#X obj 129 110 * 4;
#X obj 180 111 * 5;
#X obj 231 111 * 6;
#X obj 282 110 * 7;
#X obj 333 110 * 8;
#X obj 384 111 * 9;
#X obj 435 110 * 10;
#X obj -24 156 osc~;
#X obj 27 156 osc~;
#X obj 78 156 osc~;
#X obj 129 156 osc~;
#X obj 180 156 osc~;
#X obj 231 156 osc~;
#X obj 282 156 osc~;
#X obj 333 156 osc~;
#X obj 384 156 osc~;
#X obj 435 156 osc~;
#X obj 180 579 outlet~;
#X obj -24 493 *~;
#X obj 27 494 *~;
#X obj 78 494 *~;
#X obj 129 493 *~;
#X obj 180 494 *~;
#X obj 231 494 *~;
#X obj 282 493 *~;
#X obj 333 494 *~;
#X obj 384 494 *~;
#X obj 435 493 *~;
#X obj 180 543 /~ 100;
#X obj 230 579 outlet~;
#X obj 230 543 /~ 100;
#X connect 0 0 42 1;
#X connect 1 0 0 0;
#X connect 2 0 31 0;
#X connect 3 0 2 0;
#X connect 3 0 22 0;
#X connect 3 0 23 0;
#X connect 3 0 24 0;
#X connect 3 0 25 0;
#X connect 3 0 26 0;
#X connect 3 0 27 0;
#X connect 3 0 28 0;
#X connect 3 0 29 0;
#X connect 3 0 30 0;
#X connect 4 0 43 1;
#X connect 5 0 4 0;
#X connect 6 0 44 1;
#X connect 7 0 6 0;
#X connect 8 0 45 1;
#X connect 9 0 8 0;
#X connect 10 0 46 1;
#X connect 11 0 10 0;
#X connect 12 0 47 1;
#X connect 13 0 12 0;
#X connect 14 0 48 1;
#X connect 15 0 14 0;
#X connect 16 0 49 1;
#X connect 17 0 16 0;
#X connect 18 0 50 1;
#X connect 19 0 18 0;
#X connect 20 0 51 1;
#X connect 21 0 20 0;
#X connect 22 0 32 0;
#X connect 23 0 33 0;
#X connect 24 0 34 0;
#X connect 25 0 35 0;
#X connect 26 0 36 0;
#X connect 27 0 37 0;
#X connect 28 0 38 0;
#X connect 29 0 39 0;
#X connect 30 0 40 0;
#X connect 31 0 42 0;
#X connect 32 0 43 0;
#X connect 33 0 44 0;
#X connect 34 0 45 0;
#X connect 35 0 46 0;
#X connect 36 0 47 0;
#X connect 37 0 48 0;
#X connect 38 0 49 0;
#X connect 39 0 50 0;
#X connect 40 0 51 0;
#X connect 42 0 52 0;
#X connect 43 0 52 0;
#X connect 44 0 52 0;
#X connect 45 0 52 0;
#X connect 46 0 52 0;
#X connect 47 0 54 0;
#X connect 48 0 54 0;
#X connect 49 0 54 0;
#X connect 50 0 54 0;
#X connect 51 0 54 0;
#X connect 52 0 41 0;
#X connect 54 0 53 0;
#X restore 442 575 pd 10harmonischenenz-------;
#N canvas 572 209 450 300 line2 0;
#X obj 163 102 random 100;
#X obj 194 164 line;
#X obj 197 64 metro 2000;
#X obj 191 204 outlet;
#X obj 197 36 inlet;
#X floatatom 282 195 5 0 0 0 - - -;
#X obj 258 124 i;
#X floatatom 326 98 5 0 2000 0 - - -;
#X obj 276 37 loadbang;
#X obj 357 45 inlet;
#X msg 282 75 10000;
#X connect 0 0 1 0;
#X connect 1 0 3 0;
#X connect 1 0 5 0;
#X connect 2 0 0 0;
#X connect 2 0 6 0;
#X connect 4 0 2 0;
#X connect 6 0 1 1;
#X connect 7 0 6 1;
#X connect 8 0 10 0;
#X connect 9 0 7 0;
#X connect 10 0 6 1;
#X restore 480 348 pd line2;
#N canvas 572 209 450 300 line2 0;
#X obj 163 102 random 100;
#X obj 194 164 line;
#X obj 197 64 metro 2000;
#X obj 191 204 outlet;
#X obj 197 36 inlet;
#X floatatom 282 195 5 0 0 0 - - -;
#X obj 258 124 i;
#X floatatom 326 98 5 0 2000 0 - - -;
#X obj 276 37 loadbang;
#X obj 357 45 inlet;
#X msg 282 75 10000;
#X connect 0 0 1 0;
#X connect 1 0 3 0;
#X connect 1 0 5 0;
#X connect 2 0 0 0;
#X connect 2 0 6 0;
#X connect 4 0 2 0;
#X connect 6 0 1 1;
#X connect 7 0 6 1;
#X connect 8 0 10 0;
#X connect 9 0 7 0;
#X connect 10 0 6 1;
#X restore 488 368 pd line2;
#N canvas 572 209 450 300 line2 0;
#X obj 163 102 random 100;
#X obj 194 164 line;
#X obj 197 64 metro 2000;
#X obj 191 204 outlet;
#X obj 197 36 inlet;
#X floatatom 282 195 5 0 0 0 - - -;
#X obj 258 124 i;
#X floatatom 326 98 5 0 2000 0 - - -;
#X obj 276 37 loadbang;
#X obj 357 45 inlet;
#X msg 282 75 10000;
#X connect 0 0 1 0;
#X connect 1 0 3 0;
#X connect 1 0 5 0;
#X connect 2 0 0 0;
#X connect 2 0 6 0;
#X connect 4 0 2 0;
#X connect 6 0 1 1;
#X connect 7 0 6 1;
#X connect 8 0 10 0;
#X connect 9 0 7 0;
#X connect 10 0 6 1;
#X restore 511 388 pd line2;
#N canvas 572 209 450 300 line2 0;
#X obj 163 102 random 100;
#X obj 194 164 line;
#X obj 197 64 metro 2000;
#X obj 191 204 outlet;
#X obj 197 36 inlet;
#X floatatom 282 195 5 0 0 0 - - -;
#X obj 258 124 i;
#X floatatom 326 98 5 0 2000 0 - - -;
#X obj 276 37 loadbang;
#X obj 357 45 inlet;
#X msg 282 75 10000;
#X connect 0 0 1 0;
#X connect 1 0 3 0;
#X connect 1 0 5 0;
#X connect 2 0 0 0;
#X connect 2 0 6 0;
#X connect 4 0 2 0;
#X connect 6 0 1 1;
#X connect 7 0 6 1;
#X connect 8 0 10 0;
#X connect 9 0 7 0;
#X connect 10 0 6 1;
#X restore 521 408 pd line2;
#N canvas 572 209 450 300 line2 0;
#X obj 163 102 random 100;
#X obj 194 164 line;
#X obj 197 64 metro 2000;
#X obj 191 204 outlet;
#X obj 197 36 inlet;
#X floatatom 282 195 5 0 0 0 - - -;
#X obj 258 124 i;
#X floatatom 326 98 5 0 2000 0 - - -;
#X obj 276 37 loadbang;
#X obj 357 45 inlet;
#X msg 282 75 10000;
#X connect 0 0 1 0;
#X connect 1 0 3 0;
#X connect 1 0 5 0;
#X connect 2 0 0 0;
#X connect 2 0 6 0;
#X connect 4 0 2 0;
#X connect 6 0 1 1;
#X connect 7 0 6 1;
#X connect 8 0 10 0;
#X connect 9 0 7 0;
#X connect 10 0 6 1;
#X restore 544 428 pd line2;
#N canvas 572 209 450 300 line2 0;
#X obj 163 102 random 100;
#X obj 194 164 line;
#X obj 197 64 metro 2000;
#X obj 191 204 outlet;
#X obj 197 36 inlet;
#X floatatom 282 195 5 0 0 0 - - -;
#X obj 258 124 i;
#X floatatom 326 98 5 0 2000 0 - - -;
#X obj 276 37 loadbang;
#X obj 357 45 inlet;
#X msg 282 75 10000;
#X connect 0 0 1 0;
#X connect 1 0 3 0;
#X connect 1 0 5 0;
#X connect 2 0 0 0;
#X connect 2 0 6 0;
#X connect 4 0 2 0;
#X connect 6 0 1 1;
#X connect 7 0 6 1;
#X connect 8 0 10 0;
#X connect 9 0 7 0;
#X connect 10 0 6 1;
#X restore 552 448 pd line2;
#N canvas 572 209 450 300 line2 0;
#X obj 163 102 random 100;
#X obj 194 164 line;
#X obj 197 64 metro 2000;
#X obj 191 204 outlet;
#X obj 197 36 inlet;
#X floatatom 282 195 5 0 0 0 - - -;
#X obj 258 124 i;
#X floatatom 326 98 5 0 2000 0 - - -;
#X obj 276 37 loadbang;
#X obj 357 45 inlet;
#X msg 282 75 10000;
#X connect 0 0 1 0;
#X connect 1 0 3 0;
#X connect 1 0 5 0;
#X connect 2 0 0 0;
#X connect 2 0 6 0;
#X connect 4 0 2 0;
#X connect 6 0 1 1;
#X connect 7 0 6 1;
#X connect 8 0 10 0;
#X connect 9 0 7 0;
#X connect 10 0 6 1;
#X restore 575 468 pd line2;
#N canvas 572 209 450 300 line2 0;
#X obj 163 102 random 100;
#X obj 194 164 line;
#X obj 197 64 metro 2000;
#X obj 191 204 outlet;
#X obj 197 36 inlet;
#X floatatom 282 195 5 0 0 0 - - -;
#X obj 258 124 i;
#X floatatom 326 98 5 0 2000 0 - - -;
#X obj 276 37 loadbang;
#X obj 357 45 inlet;
#X msg 282 75 10000;
#X connect 0 0 1 0;
#X connect 1 0 3 0;
#X connect 1 0 5 0;
#X connect 2 0 0 0;
#X connect 2 0 6 0;
#X connect 4 0 2 0;
#X connect 6 0 1 1;
#X connect 7 0 6 1;
#X connect 8 0 10 0;
#X connect 9 0 7 0;
#X connect 10 0 6 1;
#X restore 585 488 pd line2;
#N canvas 572 209 450 300 line2 0;
#X obj 163 102 random 100;
#X obj 194 164 line;
#X obj 197 64 metro 2000;
#X obj 191 204 outlet;
#X obj 197 36 inlet;
#X floatatom 282 195 5 0 0 0 - - -;
#X obj 258 124 i;
#X floatatom 326 98 5 0 2000 0 - - -;
#X obj 276 37 loadbang;
#X obj 357 45 inlet;
#X msg 282 75 10000;
#X connect 0 0 1 0;
#X connect 1 0 3 0;
#X connect 1 0 5 0;
#X connect 2 0 0 0;
#X connect 2 0 6 0;
#X connect 4 0 2 0;
#X connect 6 0 1 1;
#X connect 7 0 6 1;
#X connect 8 0 10 0;
#X connect 9 0 7 0;
#X connect 10 0 6 1;
#X restore 608 508 pd line2;
#X obj 472 222 env~ 2;
#X obj 457 531 * 1;
#X obj 472 250 / 100;
#X obj 519 222 env~ 2;
#X obj 519 250 / 100;
#X obj 519 196 osc~ 1;
#X obj 480 553 *;
#X obj 488 531 * 1;
#X obj 511 553 *;
#X obj 521 531 * 1;
#X obj 544 553 *;
#X obj 552 531 * 1;
#X obj 575 553 *;
#X obj 585 531 * 1;
#X obj 608 553 *;
#X obj 472 196 osc~ 1;
#X obj 572 222 env~ 2;
#X obj 572 250 / 100;
#X obj 619 222 env~ 2;
#X obj 619 250 / 100;
#X obj 619 196 osc~ 1;
#X obj 572 196 osc~ 1;
#X obj 662 222 env~ 2;
#X obj 662 250 / 100;
#X obj 709 222 env~ 2;
#X obj 709 250 / 100;
#X obj 709 196 osc~ 1;
#X obj 662 196 osc~ 1;
#X obj 762 222 env~ 2;
#X obj 762 250 / 100;
#X obj 809 222 env~ 2;
#X obj 809 250 / 100;
#X obj 809 196 osc~ 1;
#X obj 762 196 osc~ 1;
#X obj 852 222 env~ 2;
#X obj 852 250 / 100;
#X obj 899 222 env~ 2;
#X obj 899 250 / 100;
#X obj 899 196 osc~ 1;
#X obj 852 196 osc~ 1;
#X obj 357 603 osc~;
#X obj 343 395 +;
#X connect 0 0 5 0;
#X connect 0 0 7 0;
#X connect 0 0 8 0;
#X connect 0 0 9 0;
#X connect 0 0 10 0;
#X connect 0 0 11 0;
#X connect 0 0 12 0;
#X connect 0 0 13 0;
#X connect 0 0 14 0;
#X connect 0 0 15 0;
#X connect 1 0 6 0;
#X connect 1 0 57 0;
#X connect 3 0 4 0;
#X connect 4 0 0 0;
#X connect 5 0 17 0;
#X connect 6 0 2 0;
#X connect 6 1 2 0;
#X connect 7 0 22 0;
#X connect 8 0 23 0;
#X connect 9 0 24 0;
#X connect 10 0 25 0;
#X connect 11 0 26 0;
#X connect 12 0 27 0;
#X connect 13 0 28 0;
#X connect 14 0 29 0;
#X connect 15 0 30 0;
#X connect 16 0 18 0;
#X connect 17 0 6 1;
#X connect 18 0 17 1;
#X connect 19 0 20 0;
#X connect 20 0 22 1;
#X connect 21 0 19 0;
#X connect 22 0 6 2;
#X connect 23 0 6 3;
#X connect 24 0 6 4;
#X connect 25 0 6 5;
#X connect 26 0 6 6;
#X connect 27 0 6 7;
#X connect 28 0 6 8;
#X connect 29 0 6 9;
#X connect 30 0 6 10;
#X connect 31 0 16 0;
#X connect 32 0 33 0;
#X connect 33 0 23 1;
#X connect 34 0 35 0;
#X connect 35 0 24 1;
#X connect 36 0 34 0;
#X connect 37 0 32 0;
#X connect 38 0 39 0;
#X connect 39 0 25 1;
#X connect 40 0 41 0;
#X connect 41 0 26 1;
#X connect 42 0 40 0;
#X connect 43 0 38 0;
#X connect 44 0 45 0;
#X connect 45 0 27 1;
#X connect 46 0 47 0;
#X connect 47 0 28 1;
#X connect 48 0 46 0;
#X connect 49 0 44 0;
#X connect 50 0 51 0;
#X connect 51 0 29 1;
#X connect 52 0 53 0;
#X connect 53 0 30 1;
#X connect 54 0 52 0;
#X connect 55 0 50 0;
#X connect 57 0 56 0;
#X restore 190 230 pd harmonisch;
#X obj 190 326 /~ 10;
#X obj 524 687 env~;
#X obj 527 714 hsl 128 15 0 127 0 0 empty empty empty -2 -8 0 10 -262144
-1 -1 0 1;
#X obj 451 658 hip~ 10;
#X obj 467 377 *~ 1;
#X obj 451 614 /~ 1;
#X obj 190 762 *~ 0.0001;
#X obj 190 298 lop~;
#X obj -26 226 *;
#X obj -11 191 random 10;
#X obj 225 710 clip~ -1 1;
#X obj 282 605 line2;
#X obj 282 582 tgl 15 0 empty empty empty 17 7 0 10 -262144 -1 -1 1
1;
#X obj 282 639 / 100;
#X obj 253 679 * -1;
#X obj 252 98 random 10;
#X obj 252 117 / 5;
#X msg 282 556 1;
#X obj 352 482 line;
#X obj -84 469 sig~;
#X obj -84 491 lop~ 5;
#X msg 54 90 67;
#X msg 166 90 52;
#X msg 138 90 59;
#X obj 252 162 line;
#X msg 252 140 \$1 1000;
#X msg -26 89 47;
#X msg 82 90 59;
#X floatatom 120 -6 5 0 0 0 - - -;
#X obj 190 800 clip~ -1 1;
#X floatatom 331 202 5 0 0 0 - - -;
#X obj 190 176 / 2;
#X obj 190 668 *~ 5;
#X obj 190 876 freeverb~;
#X msg 81 844 roomsize 0.8;
#X obj 190 833 lop~;
#X obj 448 766 noise~;
#X obj 343 805 env~ 2;
#X obj 398 856 hsl 128 15 0 127 0 0 empty empty empty -2 -8 0 10 -262144
-1 -1 0 1;
#X floatatom 349 879 5 0 0 0 - - -;
#X obj 332 840 * 1;
#X obj 448 791 lop~ 0.001;
#X obj 300 828 * 10;
#X obj -44 -144 oscr;
#X obj -44 -122 select 1;
#X connect 0 0 1 0;
#X connect 1 0 29 0;
#X connect 2 0 3 0;
#X connect 3 0 1 1;
#X connect 4 0 54 0;
#X connect 4 1 53 0;
#X connect 4 2 52 0;
#X connect 5 0 4 0;
#X connect 6 0 4 0;
#X connect 7 0 4 0;
#X connect 8 0 74 0;
#X connect 9 0 74 0;
#X connect 10 0 74 0;
#X connect 11 0 4 0;
#X connect 12 0 4 0;
#X connect 13 0 4 0;
#X connect 14 0 4 0;
#X connect 15 0 4 0;
#X connect 16 0 4 0;
#X connect 17 0 26 0;
#X connect 18 0 26 0;
#X connect 19 0 26 0;
#X connect 20 0 26 0;
#X connect 21 0 26 0;
#X connect 22 0 26 0;
#X connect 23 0 26 0;
#X connect 24 0 26 0;
#X connect 25 0 26 0;
#X connect 26 0 6 0;
#X connect 26 1 5 0;
#X connect 26 2 7 0;
#X connect 26 3 11 0;
#X connect 26 4 12 0;
#X connect 26 5 13 0;
#X connect 26 6 14 0;
#X connect 26 7 15 0;
#X connect 26 8 16 0;
#X connect 27 0 51 0;
#X connect 27 0 75 0;
#X connect 28 0 2 0;
#X connect 28 0 2 1;
#X connect 29 0 8 0;
#X connect 29 0 9 0;
#X connect 29 0 10 0;
#X connect 30 0 62 0;
#X connect 32 0 33 0;
#X connect 32 0 61 0;
#X connect 33 0 39 0;
#X connect 34 0 10 1;
#X connect 35 0 9 1;
#X connect 36 0 8 1;
#X connect 37 0 67 0;
#X connect 37 0 77 0;
#X connect 37 0 100 0;
#X connect 39 0 17 0;
#X connect 39 1 18 0;
#X connect 39 2 19 0;
#X connect 39 3 20 0;
#X connect 39 4 22 0;
#X connect 39 5 23 0;
#X connect 39 6 25 0;
#X connect 40 0 98 0;
#X connect 41 0 30 0;
#X connect 41 0 58 0;
#X connect 41 0 59 0;
#X connect 43 0 32 0;
#X connect 43 0 31 0;
#X connect 43 0 44 0;
#X connect 43 0 87 0;
#X connect 45 0 46 0;
#X connect 45 0 86 0;
#X connect 45 0 103 0;
#X connect 46 0 49 0;
#X connect 47 0 41 0;
#X connect 48 0 68 0;
#X connect 49 0 43 0;
#X connect 50 0 37 0;
#X connect 51 0 66 0;
#X connect 52 0 36 0;
#X connect 53 0 35 0;
#X connect 54 0 34 0;
#X connect 55 0 37 0;
#X connect 56 0 37 0;
#X connect 57 0 43 0;
#X connect 58 0 88 0;
#X connect 59 0 38 0;
#X connect 59 0 60 0;
#X connect 59 0 97 0;
#X connect 60 0 95 0;
#X connect 60 1 50 0;
#X connect 60 2 55 0;
#X connect 60 3 90 0;
#X connect 60 4 96 0;
#X connect 60 5 56 0;
#X connect 60 6 92 0;
#X connect 60 7 91 0;
#X connect 60 8 63 0;
#X connect 62 0 57 0;
#X connect 63 0 78 0;
#X connect 63 0 84 0;
#X connect 64 0 65 0;
#X connect 66 0 75 1;
#X connect 68 0 76 0;
#X connect 69 0 73 0;
#X connect 69 0 101 0;
#X connect 70 0 71 0;
#X connect 72 0 70 0;
#X connect 72 0 27 0;
#X connect 73 0 28 0;
#X connect 74 0 72 0;
#X connect 75 0 40 0;
#X connect 76 0 69 0;
#X connect 77 0 76 1;
#X connect 78 0 77 1;
#X connect 79 0 75 0;
#X connect 80 0 82 0;
#X connect 81 0 80 0;
#X connect 82 0 83 0;
#X connect 82 0 79 2;
#X connect 83 0 79 1;
#X connect 84 0 85 0;
#X connect 85 0 94 0;
#X connect 86 0 81 0;
#X connect 87 0 10 2;
#X connect 87 0 9 2;
#X connect 87 0 8 2;
#X connect 88 0 89 0;
#X connect 89 0 40 1;
#X connect 90 0 37 0;
#X connect 91 0 37 0;
#X connect 92 0 37 0;
#X connect 93 0 48 1;
#X connect 93 0 99 0;
#X connect 94 0 93 0;
#X connect 95 0 37 0;
#X connect 96 0 37 0;
#X connect 98 0 104 0;
#X connect 100 0 48 0;
#X connect 101 0 79 0;
#X connect 101 0 75 0;
#X connect 102 0 42 0;
#X connect 102 0 64 0;
#X connect 103 0 102 0;
#X connect 104 0 102 0;
#X connect 105 0 110 0;
#X connect 106 0 107 0;
#X connect 106 0 109 0;
#X connect 106 0 111 0;
#X connect 109 0 108 0;
#X connect 110 0 106 0;
#X connect 111 0 104 1;
#X connect 112 0 113 0;
#X connect 113 0 41 0;
